HIERARCHY
ROOT joint_0
{
	OFFSET 0.000000 0.000000 0.000000
	CHANNELS 6 Xposition Yposition Zposition Zrotation Yrotation Xrotation 
	JOINT joint_1
	{
		OFFSET 6.004005 -1.946999 100.587036
		CHANNELS 3 Zrotation Yrotation Xrotation
		JOINT joint_2
		{
			OFFSET -4.601006 -0.824997 91.925903
			CHANNELS 3 Zrotation Yrotation Xrotation
			JOINT joint_3
			{
				OFFSET -5.420998 -1.130005 91.774048
				CHANNELS 3 Zrotation Yrotation Xrotation
				JOINT joint_4
				{
					OFFSET 4.308998 -3.777992 123.473999
					CHANNELS 3 Zrotation Yrotation Xrotation
					JOINT joint_5
					{
						OFFSET 25.565002 -6.305008 79.437988
						CHANNELS 3 Zrotation Yrotation Xrotation
						End Site
						{
							OFFSET 0.000000 0.000000 0.000000
						}
					}
				}
				JOINT joint_6
				{
					OFFSET -1.750000 -28.655998 68.557983
					CHANNELS 3 Zrotation Yrotation Xrotation
					JOINT joint_7
					{
						OFFSET -17.692001 -116.544006 -17.244019
						CHANNELS 3 Zrotation Yrotation Xrotation
						JOINT joint_8
						{
							OFFSET 27.063004 -23.640991 -266.895020
							CHANNELS 3 Zrotation Yrotation Xrotation
							JOINT joint_9
							{
								OFFSET 40.722000 -15.761017 -232.488953
								CHANNELS 3 Zrotation Yrotation Xrotation
								End Site
								{
									OFFSET 0.000000 0.000000 0.000000
								}
							}
						}
					}
				}
				JOINT joint_10
				{
					OFFSET 6.593002 24.457001 69.892944
					CHANNELS 3 Zrotation Yrotation Xrotation
					JOINT joint_11
					{
						OFFSET 24.311996 114.920002 -19.872925
						CHANNELS 3 Zrotation Yrotation Xrotation
						JOINT joint_12
						{
							OFFSET 21.081001 15.319000 -268.037964
							CHANNELS 3 Zrotation Yrotation Xrotation
							JOINT joint_13
							{
								OFFSET 27.794006 -8.947001 -234.744080
								CHANNELS 3 Zrotation Yrotation Xrotation
								End Site
								{
									OFFSET 0.000000 0.000000 0.000000
								}
							}
						}
					}
				}
			}
		}
	}
	JOINT joint_14
	{
		OFFSET -6.627998 -80.520004 -98.790039
		CHANNELS 3 Zrotation Yrotation Xrotation
		JOINT joint_15
		{
			OFFSET -43.638000 -13.751999 -502.538971
			CHANNELS 3 Zrotation Yrotation Xrotation
			JOINT joint_16
			{
				OFFSET -39.532999 -9.912994 -398.071007
				CHANNELS 3 Zrotation Yrotation Xrotation
				JOINT joint_17
				{
					OFFSET 174.940004 -34.660995 -75.688002
					CHANNELS 3 Zrotation Yrotation Xrotation
					End Site
					{
						OFFSET 0.000000 0.000000 0.000000
					}
				}
			}
		}
	}
	JOINT joint_18
	{
		OFFSET 12.591003 79.842003 -98.765015
		CHANNELS 3 Zrotation Yrotation Xrotation
		JOINT joint_19
		{
			OFFSET -39.080002 -1.297001 -503.101013
			CHANNELS 3 Zrotation Yrotation Xrotation
			JOINT joint_20
			{
				OFFSET -51.570000 -0.514000 -396.815987
				CHANNELS 3 Zrotation Yrotation Xrotation
				JOINT joint_21
				{
					OFFSET 178.987999 -11.521999 -73.244003
					CHANNELS 3 Zrotation Yrotation Xrotation
					End Site
					{
						OFFSET 0.000000 0.000000 0.000000
					}
				}
			}
		}
	}
}
MOTION
Frames: 18
Frame Time: 0.016667
-2526.979980 926.528564 1098.572998 3.994252 -2.048232 -0.368936 0.355251 -0.275365 -0.896608 0.406158 0.016893 0.203627 0.383529 -0.045039 -0.151531 -0.054221 -2.037549 -0.373297 0.000000 0.000000 0.000000 3.530988 1.188315 0.779639 -0.098772 1.340958 3.330090 -1.213126 5.598152 -3.998638 0.000000 0.000000 0.000000 0.603014 0.536893 1.694255 -0.165258 1.430632 -3.157886 0.669559 1.914375 7.028033 0.000000 0.000000 0.000000 2.546544 -1.044257 -2.148342 2.180430 0.588481 1.549691 2.225181 0.967192 1.149975 0.000000 0.000000 0.000000 -0.626509 -2.585743 4.460460 -0.183968 1.485541 -0.827186 -0.293323 1.934628 0.005329 0.000000 0.000000 0.000000 
-2526.941650 926.548767 1098.557007 3.990826 -2.040774 -0.372215 0.352125 -0.281827 -0.898442 0.403135 0.015858 0.203701 0.380499 -0.044339 -0.151921 -0.056158 -2.025153 -0.363834 0.000000 0.000000 0.000000 3.539500 1.191469 0.784748 -0.097315 1.343595 3.345645 -1.211383 5.581260 -3.998669 0.000000 0.000000 0.000000 0.597646 0.534090 1.700226 -0.163646 1.428075 -3.147475 0.668407 1.905518 7.009093 0.000000 0.000000 0.000000 2.548743 -1.049419 -2.152448 2.181139 0.583420 1.562685 2.226713 0.976652 1.152501 0.000000 0.000000 0.000000 -0.625082 -2.597865 4.468884 -0.180827 1.495749 -0.839691 -0.291927 1.943812 0.006482 0.000000 0.000000 0.000000 
-2526.911133 926.569702 1098.540039 3.985250 -2.033186 -0.376152 0.349012 -0.289335 -0.899408 0.400155 0.017517 0.204591 0.377394 -0.045877 -0.152374 -0.057747 -2.012275 -0.355325 0.000000 0.000000 0.000000 3.550935 1.195118 0.789893 -0.096066 1.347180 3.361293 -1.210229 5.568276 -3.999685 0.000000 0.000000 0.000000 0.591326 0.531479 1.704064 -0.161670 1.425163 -3.135562 0.667059 1.893814 6.986382 0.000000 0.000000 0.000000 2.551684 -1.055581 -2.156675 2.182410 0.578518 1.577178 2.228950 0.986154 1.155336 0.000000 0.000000 0.000000 -0.622398 -2.609752 4.479823 -0.175936 1.504583 -0.855551 -0.289286 1.953279 0.008158 0.000000 0.000000 0.000000 
-2526.890137 926.595398 1098.522949 3.982186 -2.025352 -0.380239 0.344550 -0.296408 -0.899471 0.395686 0.018393 0.203762 0.373015 -0.046177 -0.151453 -0.059269 -2.001381 -0.347569 0.000000 0.000000 0.000000 3.562490 1.198832 0.794785 -0.094906 1.350967 3.375988 -1.209332 5.558595 -4.000503 0.000000 0.000000 0.000000 0.585829 0.528251 1.707436 -0.159892 1.421837 -3.125892 0.665699 1.882045 6.963464 0.000000 0.000000 0.000000 2.553792 -1.062890 -2.161364 2.182681 0.575248 1.592324 2.230399 0.994291 1.157560 0.000000 0.000000 0.000000 -0.620274 -2.623768 4.490914 -0.171531 1.515243 -0.871920 -0.287176 1.964204 0.009712 0.000000 0.000000 0.000000 
-2526.880127 926.630737 1098.506958 3.984795 -2.016219 -0.383782 0.338008 -0.305332 -0.900221 0.389208 0.020259 0.203353 0.366569 -0.047177 -0.150712 -0.061562 -1.990774 -0.337480 0.000000 0.000000 0.000000 3.571463 1.203827 0.796656 -0.093598 1.354941 3.392192 -1.208729 5.552096 -4.001480 0.000000 0.000000 0.000000 0.580033 0.524966 1.711632 -0.158568 1.419623 -3.121034 0.664483 1.871823 6.942755 0.000000 0.000000 0.000000 2.554090 -1.073119 -2.167532 2.180780 0.575794 1.608263 2.230065 0.999748 1.158483 0.000000 0.000000 0.000000 -0.620169 -2.643144 4.499679 -0.169493 1.530989 -0.886168 -0.287054 1.976519 0.010550 0.000000 0.000000 0.000000 
-2526.883545 926.673645 1098.493042 3.991170 -2.006659 -0.387244 0.329140 -0.312726 -0.899950 0.380272 0.020459 0.201798 0.357750 -0.047692 -0.150184 -0.064079 -1.980957 -0.326882 0.000000 0.000000 0.000000 3.580651 1.208463 0.797936 -0.092261 1.358504 3.408332 -1.208604 5.550713 -4.002629 0.000000 0.000000 0.000000 0.577232 0.521410 1.715766 -0.157544 1.417180 -3.119125 0.663380 1.862262 6.923560 0.000000 0.000000 0.000000 2.553248 -1.085300 -2.174596 2.177486 0.579071 1.624847 2.228577 1.004296 1.158727 0.000000 0.000000 0.000000 -0.621159 -2.666063 4.507332 -0.168712 1.550230 -0.899232 -0.287980 1.990202 0.011051 0.000000 0.000000 0.000000 
-2526.882080 926.720703 1098.475952 3.998797 -1.997519 -0.391173 0.320146 -0.322158 -0.900130 0.371353 0.022430 0.202033 0.348762 -0.049915 -0.150178 -0.066676 -1.972230 -0.316348 0.000000 0.000000 0.000000 3.588620 1.216315 0.799739 -0.091351 1.365539 3.422548 -1.208342 5.548835 -4.003329 0.000000 0.000000 0.000000 0.573750 0.519431 1.718673 -0.156638 1.416296 -3.117913 0.662278 1.854134 6.905133 0.000000 0.000000 0.000000 2.551859 -1.096806 -2.181736 2.173572 0.582899 1.642310 2.226632 1.008195 1.158645 0.000000 0.000000 0.000000 -0.622203 -2.688321 4.515827 -0.167793 1.568949 -0.913696 -0.288964 2.005540 0.011634 0.000000 0.000000 0.000000 
-2526.857422 926.770508 1098.453003 4.004931 -1.991575 -0.396685 0.312460 -0.334419 -0.897995 0.363626 0.025610 0.201196 0.341079 -0.051160 -0.149357 -0.069205 -1.967119 -0.307046 0.000000 0.000000 0.000000 3.595646 1.229318 0.801544 -0.090982 1.377814 3.435791 -1.207703 5.542771 -4.004056 0.000000 0.000000 0.000000 0.568015 0.519873 1.720633 -0.155719 1.418166 -3.117376 0.661332 1.847079 6.888941 0.000000 0.000000 0.000000 2.550679 -1.103225 -2.187558 2.170041 0.585662 1.660957 2.225173 1.011633 1.158683 0.000000 0.000000 0.000000 -0.622381 -2.703582 4.526805 -0.165643 1.583654 -0.930111 -0.289032 2.021472 0.012627 0.000000 0.000000 0.000000 
-2526.818115 926.823792 1098.427002 4.010752 -1.988281 -0.402749 0.305040 -0.347636 -0.895564 0.356220 0.029944 0.201181 0.333546 -0.055394 -0.149664 -0.072157 -1.961029 -0.296187 0.000000 0.000000 0.000000 3.602286 1.247332 0.804674 -0.091129 1.395595 3.447274 -1.206663 5.534826 -4.003649 0.000000 0.000000 0.000000 0.562181 0.523427 1.721965 -0.154813 1.423071 -3.117037 0.660412 1.841723 6.873920 0.000000 0.000000 0.000000 2.549166 -1.105781 -2.193228 2.166212 0.588083 1.680660 2.223540 1.014909 1.158615 0.000000 0.000000 0.000000 -0.621936 -2.713869 4.538701 -0.162688 1.595749 -0.947795 -0.288512 2.039214 0.013974 0.000000 0.000000 0.000000 
-2526.781006 926.883972 1098.392944 4.016883 -1.981105 -0.409704 0.298455 -0.364117 -0.889930 0.349412 0.033622 0.199077 0.326910 -0.057589 -0.147740 -0.074493 -1.957788 -0.288012 0.000000 0.000000 0.000000 3.606538 1.265796 0.808140 -0.091770 1.414095 3.455467 -1.206154 5.530340 -4.004183 0.000000 0.000000 0.000000 0.555895 0.527627 1.718929 -0.153898 1.427547 -3.115576 0.659571 1.836680 6.860196 0.000000 0.000000 0.000000 2.547556 -1.112723 -2.199604 2.161915 0.590301 1.702715 2.221675 1.018948 1.158596 0.000000 0.000000 0.000000 -0.621384 -2.728345 4.552989 -0.159082 1.606852 -0.969427 -0.287884 2.059387 0.015521 0.000000 0.000000 0.000000 
-2526.769287 926.954346 1098.348999 4.020527 -1.969682 -0.418112 0.292469 -0.380304 -0.879647 0.342981 0.037829 0.196855 0.320631 -0.059845 -0.146114 -0.076271 -1.957306 -0.282319 0.000000 0.000000 0.000000 3.614606 1.280805 0.814254 -0.093118 1.431112 3.457739 -1.206936 5.535427 -4.006301 0.000000 0.000000 0.000000 0.553006 0.531145 1.711075 -0.153015 1.429380 -3.112438 0.658804 1.831460 6.847512 0.000000 0.000000 0.000000 2.546893 -1.126524 -2.206696 2.158064 0.592995 1.727471 2.220470 1.024708 1.159196 0.000000 0.000000 0.000000 -0.619960 -2.749346 4.570623 -0.153889 1.618899 -0.996083 -0.286394 2.083443 0.017666 0.000000 0.000000 0.000000 
-2526.775635 927.032227 1098.296997 4.021356 -1.955448 -0.428156 0.287841 -0.396735 -0.865553 0.337697 0.041755 0.194001 0.315602 -0.061710 -0.143580 -0.078031 -1.958486 -0.277148 0.000000 0.000000 0.000000 3.624230 1.294388 0.822419 -0.095162 1.448117 3.454960 -1.208687 5.547033 -4.009952 0.000000 0.000000 0.000000 0.549435 0.534630 1.698650 -0.152148 1.429980 -3.107609 0.658082 1.827034 6.835697 0.000000 0.000000 0.000000 2.547060 -1.145366 -2.213762 2.154676 0.596392 1.754630 2.219937 1.031685 1.160321 0.000000 0.000000 0.000000 -0.617483 -2.774556 4.591711 -0.146978 1.631281 -1.027112 -0.283830 2.110345 0.020428 0.000000 0.000000 0.000000 
-2526.753418 927.116943 1098.230957 4.035520 -1.927091 -0.435361 0.280351 -0.425134 -0.853195 0.329715 0.044935 0.191512 0.307841 -0.062148 -0.141675 -0.078342 -1.961110 -0.276798 0.000000 0.000000 0.000000 3.623077 1.310559 0.832457 -0.097388 1.466947 3.448803 -1.209991 5.559520 -4.011179 0.000000 0.000000 0.000000 0.552570 0.541526 1.682761 -0.150996 1.431686 -3.100578 0.657300 1.820141 6.823872 0.000000 0.000000 0.000000 2.543462 -1.174493 -2.226471 2.146617 0.596072 1.785302 2.215163 1.039779 1.159843 0.000000 0.000000 0.000000 -0.619303 -2.814381 4.611076 -0.144066 1.641069 -1.062769 -0.285696 2.141917 0.021696 0.000000 0.000000 0.000000 
-2526.748779 927.227173 1098.146973 4.032642 -1.876249 -0.448026 0.279710 -0.474976 -0.831598 0.328471 0.043853 0.193244 0.306423 -0.059841 -0.143386 -0.074268 -1.952938 -0.287006 0.000000 0.000000 0.000000 3.602866 1.323779 0.853452 -0.100978 1.484336 3.426431 -1.211852 5.575552 -4.015011 0.000000 0.000000 0.000000 0.554808 0.552348 1.652378 -0.149298 1.432771 -3.085310 0.656806 1.813909 6.815790 0.000000 0.000000 0.000000 2.545641 -1.232642 -2.238569 2.143138 0.596765 1.821291 2.215162 1.053011 1.162430 0.000000 0.000000 0.000000 -0.616541 -2.877421 4.635614 -0.136099 1.649350 -1.099220 -0.282899 2.178906 0.025200 0.000000 0.000000 0.000000 
-2526.782959 927.362122 1098.047974 4.006734 -1.808026 -0.467576 0.286603 -0.540564 -0.799044 0.334430 0.038956 0.196883 0.312156 -0.054887 -0.145279 -0.065749 -1.938051 -0.309107 0.000000 0.000000 0.000000 3.571473 1.331652 0.884928 -0.106156 1.499285 3.385980 -1.214631 5.597439 -4.021830 0.000000 0.000000 0.000000 0.556718 0.565644 1.605834 -0.147139 1.431363 -3.062056 0.656755 1.808682 6.812737 0.000000 0.000000 0.000000 2.555830 -1.317434 -2.247986 2.146724 0.601194 1.861410 2.222310 1.070389 1.168905 0.000000 0.000000 0.000000 -0.607030 -2.959452 4.666789 -0.120847 1.658211 -1.135935 -0.273237 2.220724 0.031794 0.000000 0.000000 0.000000 
-2526.499023 927.431091 1097.930054 4.140078 -1.721629 -0.444584 0.252210 -0.615943 -0.826374 0.301963 0.035467 0.202607 0.279204 -0.049725 -0.149144 -0.065483 -1.953647 -0.313862 0.000000 0.000000 0.000000 3.507969 1.376947 0.887577 -0.106135 1.534235 3.395518 -1.210466 5.593527 -4.003749 0.000000 0.000000 0.000000 0.586536 0.590696 1.598614 -0.144480 1.448536 -3.054134 0.654895 1.783839 6.791139 0.000000 0.000000 0.000000 2.514527 -1.363431 -2.297918 2.097662 0.569082 1.902996 2.178482 1.080883 1.152119 0.000000 0.000000 0.000000 -0.645693 -3.055562 4.661095 -0.154655 1.649279 -1.193133 -0.312953 2.271344 0.018951 0.000000 0.000000 0.000000 
-2525.889893 927.435181 1097.775024 4.650648 -1.626434 -0.321107 0.117451 -0.678764 -0.982101 0.174663 0.029355 0.205291 0.151996 -0.038173 -0.148555 -0.083752 -2.010533 -0.272144 0.000000 0.000000 0.000000 3.363763 1.464489 0.836433 -0.095249 1.579322 3.473955 -1.192906 5.562129 -3.927330 0.000000 0.000000 0.000000 0.674841 0.612237 1.640618 -0.143901 1.465676 -3.062933 0.649369 1.742552 6.742726 0.000000 0.000000 0.000000 2.351667 -1.311750 -2.447248 1.923505 0.467196 1.951438 2.014961 1.062289 1.078087 0.000000 0.000000 0.000000 -0.793910 -3.180888 4.556118 -0.301503 1.617042 -1.293759 -0.465854 2.338732 -0.038663 0.000000 0.000000 0.000000 
-2525.095703 927.412109 1097.583008 5.472176 -1.526062 -0.115609 -0.100336 -0.730576 -1.235849 -0.031338 0.019605 0.203697 -0.053321 -0.018056 -0.145255 -0.116006 -2.093181 -0.193760 0.000000 0.000000 0.000000 3.145696 1.576844 0.747852 -0.076152 1.624984 3.594629 -1.165188 5.516437 -3.803625 0.000000 0.000000 0.000000 0.812079 0.625750 1.712451 -0.145399 1.473900 -3.079467 0.641002 1.693057 6.675115 0.000000 0.000000 0.000000 2.088243 -1.184509 -2.677471 1.646059 0.309000 2.007227 1.752925 1.020124 0.956975 0.000000 0.000000 0.000000 -1.031247 -3.336458 4.369402 -0.540436 1.569430 -1.432142 -0.711211 2.422380 -0.132692 0.000000 0.000000 0.000000 
